<svg width="20" height="20" viewBox="0 0 20 20" xmlns="http://www.w3.org/2000/svg">
  <path d="M6.00005 0H14.0001V6H6.00005V0Z"/>
  <path d="M2.90001 0H4.00003V8.00001H16V0H20V20H6.35795e-07V2.90001L2.90001 0ZM10 18C12.2 18 14 16.2 14 14C14 11.8 12.2 10 10 10C7.80004 10 6.00004 11.8 6.00004 14C6 16.2 7.79999 18 10 18Z"/>
  <path d="M9.99969 16C8.89512 16 7.99968 15.1046 7.99968 14C7.99968 12.8954 8.89512 12 9.99969 12C11.1043 12 11.9997 12.8954 11.9997 14C11.9997 15.1046 11.1043 16 9.99969 16Z"/>
</svg>
