<svg width="16" height="20" viewBox="0 0 16 20" xmlns="http://www.w3.org/2000/svg">
  <path d="M3.73551 4.21495C3.73551 6.54285 5.62256 8.4299 7.95046 8.4299C10.2784 8.4299 12.1654 6.54285 12.1654 4.21495C12.1654 1.88705 10.2784 0 7.95046 0C5.62256 0 3.73551 1.88705 3.73551 4.21495Z"/>
  <path d="M7.83985 9.91486C12.1704 9.91294 15.6815 13.4241 15.6796 17.7546V19.5536C15.6796 19.8002 15.4798 20.0001 15.2332 20.0001H0.446508C0.199923 20.0001 7.49402e-05 19.8002 7.49402e-05 19.5536V17.7546C-0.00184334 13.4241 3.50928 9.91294 7.83985 9.91486V9.91486Z"/>
</svg>
