<svg width="52" height="52" viewBox="0 0 52 52" fill="none" xmlns="http://www.w3.org/2000/svg">
<path fill-rule="evenodd" clip-rule="evenodd" d="M31.4241 9.85386L37.813 16.2428C37.9328 16.3626 38.0002 16.5248 38.0002 16.6944V37.7778C38.0002 39.1872 36.8541 40.3333 35.4447 40.3333H17.5558C16.1463 40.3333 15.0002 39.1872 15.0002 37.7778V12.2223C15.0002 10.8128 16.1463 9.66669 17.5557 9.66669H30.9724C31.1421 9.66669 31.3043 9.73407 31.4241 9.85386ZM35.819 16.0556L31.6113 11.8479V14.7778C31.6113 15.4822 32.1847 16.0556 32.889 16.0556H35.819ZM35.4447 39.0555C36.149 39.0555 36.7224 38.4821 36.7224 37.7778V17.3334H32.8891C31.4796 17.3334 30.3335 16.1872 30.3335 14.7778V10.9445H17.5558C16.8514 10.9445 16.278 11.5179 16.278 12.2223V37.7778C16.278 38.4821 16.8514 39.0555 17.5558 39.0555H35.4447ZM28.2296 27.1039C28.604 27.4782 29.1661 27.9567 29.7576 28.4222C30.6623 28.2706 31.3536 28.1944 31.6112 28.1944C32.441 28.1944 34.1668 28.1944 34.1668 29.7049C34.1668 30.4729 33.8343 31.3889 32.2501 31.3889C31.678 31.3889 30.4969 30.6021 29.4276 29.7798C28.093 30.0287 26.4022 30.4262 25.042 30.9627C23.7318 33.6356 21.9381 35.2222 20.7501 35.2222C19.8287 35.2222 18.8335 34.6551 18.8335 33.7392C18.8335 32.4777 20.1811 31.8387 22.2214 30.8729L22.2588 30.8552C22.6956 30.648 23.1652 30.4254 23.6589 30.1785C23.7999 30.108 23.9459 30.04 24.0962 29.9732C24.2809 29.5602 24.4556 29.1135 24.6166 28.6312C24.6741 28.4585 24.7304 28.2892 24.7857 28.1232C25.052 27.3232 25.2921 26.6017 25.5019 25.9615C24.4669 24.6163 23.9446 23.459 23.9446 22.5056C23.9446 20.3431 24.9872 19.8889 25.8613 19.8889C27.0118 19.8889 27.778 20.3238 27.778 22.4444C27.778 22.9436 27.5203 23.8801 26.9325 25.6963C27.3093 26.1455 27.743 26.6172 28.2296 27.1039ZM20.1112 33.7392C20.1381 33.7722 20.3851 33.9444 20.7501 33.9444C21.1126 33.9444 22.0616 33.2994 23.0212 31.908C22.9758 31.9295 22.9307 31.9507 22.886 31.9718C22.8465 31.9903 22.8074 32.0088 22.7685 32.0272C21.462 32.6461 20.1112 33.2862 20.1112 33.7392ZM25.8613 21.1667C25.6379 21.1667 25.2224 21.1667 25.2224 22.5056C25.2224 23.0054 25.49 23.6673 25.9917 24.4398C26.3205 23.3878 26.5002 22.714 26.5002 22.4444C26.5002 21.1667 26.313 21.1667 25.8613 21.1667ZM25.8282 29.0355C25.7908 29.1491 25.7521 29.2614 25.7122 29.3724C26.5133 29.1185 27.3511 28.9057 28.1387 28.7341C27.743 28.3966 27.4461 28.1271 27.3263 28.0073C27.0199 27.701 26.7342 27.4021 26.469 27.1101C26.3164 27.5714 26.1489 28.0738 25.9663 28.6215C25.9212 28.7567 25.8752 28.8947 25.8282 29.0355ZM32.2963 30.1149C32.8891 30.1111 32.8891 29.992 32.8891 29.705C32.8229 29.5646 32.5553 29.4723 31.6112 29.4723C31.5364 29.4723 31.4035 29.4823 31.2232 29.5022C31.7198 29.8404 32.1223 30.0774 32.2963 30.1149Z" fill="#DF4834"/>
<circle cx="26" cy="26" r="25.5" stroke="#303030"/>
</svg>
